<svg width="60" height="60" viewBox="0 0 60 60" fill="none" xmlns="http://www.w3.org/2000/svg">
<rect width="60" height="60" fill="#E5E5E5"/>
<rect width="212" height="155" transform="translate(-58 -38)" fill="white"/>
<path d="M0 10C0 4.47715 4.47715 0 10 0H50C55.5228 0 60 4.47715 60 10V50C60 55.5228 55.5228 60 50 60H10C4.47715 60 0 55.5228 0 50V10Z" fill="#5A67D8"/>
<path d="M51.984 14.424C51.168 14.44 50.224 14.856 49.152 15.672C48.08 16.488 46.952 17.584 45.768 18.96C44.584 20.336 43.376 21.928 42.144 23.736C40.928 25.528 39.752 27.408 38.616 29.376C37.496 31.328 36.456 33.304 35.496 35.304C34.536 37.288 33.728 39.168 33.072 40.944C32.416 42.72 31.944 44.312 31.656 45.72C31.384 47.144 31.368 48.264 31.608 49.08C30.792 49.08 30.088 48.904 29.496 48.552C28.904 48.2 28.408 47.792 28.008 47.328C27.608 46.88 27.296 46.44 27.072 46.008C26.864 45.576 26.712 45.264 26.616 45.072C26.136 44.016 25.856 42.768 25.776 41.328C25.696 39.872 25.728 38.352 25.872 36.768C26.016 35.168 26.232 33.56 26.52 31.944C26.808 30.312 27.08 28.776 27.336 27.336C27.592 25.896 27.784 24.616 27.912 23.496C28.056 22.376 28.056 21.52 27.912 20.928C27.848 20.64 27.752 20.416 27.624 20.256C27.512 20.08 27.352 19.952 27.144 19.872C26.936 19.776 26.672 19.72 26.352 19.704C26.032 19.688 25.64 19.688 25.176 19.704C23.88 19.784 22.52 20.032 21.096 20.448C19.672 20.848 18.28 21.376 16.92 22.032C15.56 22.672 14.28 23.408 13.08 24.24C11.88 25.056 10.864 25.912 10.032 26.808C9.184 27.704 8.56 28.616 8.16 29.544C7.76 30.456 7.688 31.328 7.944 32.16C8.168 32.96 8.576 33.632 9.168 34.176C9.76 34.704 10.456 35.136 11.256 35.472C12.04 35.792 12.88 36.024 13.776 36.168C14.688 36.296 15.56 36.368 16.392 36.384C17.24 36.4 18.008 36.36 18.696 36.264C19.384 36.168 19.912 36.048 20.28 35.904C20.2 36.4 20.032 36.784 19.776 37.056C19.52 37.328 19.224 37.528 18.888 37.656C18.568 37.768 18.24 37.832 17.904 37.848C17.568 37.864 17.296 37.864 17.088 37.848C16.096 37.8 15.024 37.64 13.872 37.368C12.736 37.096 11.648 36.712 10.608 36.216C9.568 35.72 8.648 35.112 7.848 34.392C7.032 33.656 6.464 32.8 6.144 31.824C5.824 30.848 5.752 29.896 5.928 28.968C6.104 28.04 6.464 27.152 7.008 26.304C7.552 25.44 8.248 24.624 9.096 23.856C9.944 23.088 10.888 22.384 11.928 21.744C12.968 21.088 14.064 20.496 15.216 19.968C16.384 19.44 17.544 18.992 18.696 18.624C19.864 18.256 20.992 17.976 22.08 17.784C23.184 17.576 24.192 17.472 25.104 17.472C25.712 17.472 26.304 17.608 26.88 17.88C27.456 18.136 27.984 18.472 28.464 18.888C28.96 19.288 29.384 19.736 29.736 20.232C30.104 20.728 30.376 21.216 30.552 21.696C30.872 22.576 31.048 23.632 31.08 24.864C31.112 26.096 31.056 27.408 30.912 28.8C30.784 30.176 30.616 31.592 30.408 33.048C30.2 34.488 30.016 35.88 29.856 37.224C29.712 38.568 29.632 39.816 29.616 40.968C29.616 42.104 29.76 43.056 30.048 43.824C30 43.248 30.152 42.384 30.504 41.232C30.856 40.08 31.344 38.768 31.968 37.296C32.608 35.808 33.352 34.208 34.2 32.496C35.064 30.768 35.976 29.04 36.936 27.312C37.912 25.584 38.912 23.904 39.936 22.272C40.976 20.64 41.984 19.176 42.96 17.88C43.952 16.568 44.88 15.48 45.744 14.616C46.624 13.752 47.392 13.208 48.048 12.984C48.304 12.888 48.6 12.848 48.936 12.864C49.272 12.88 49.616 12.952 49.968 13.08C50.32 13.192 50.672 13.36 51.024 13.584C51.376 13.808 51.696 14.088 51.984 14.424Z" fill="white"/>
</svg>
