<svg width="60" height="60" viewBox="0 0 60 60" fill="none" xmlns="http://www.w3.org/2000/svg">
<rect width="60" height="60" fill="#E5E5E5"/>
<rect width="212" height="155" transform="translate(-55 -47)" fill="white"/>
<rect x="0.5" y="0.5" width="59" height="59" rx="9.5" fill="white" stroke="#5A67D8"/>
<path d="M53.984 16.424C53.168 16.44 52.224 16.856 51.152 17.672C50.08 18.488 48.952 19.584 47.768 20.96C46.584 22.336 45.376 23.928 44.144 25.736C42.928 27.528 41.752 29.408 40.616 31.376C39.496 33.328 38.456 35.304 37.496 37.304C36.536 39.288 35.728 41.168 35.072 42.944C34.416 44.72 33.944 46.312 33.656 47.72C33.384 49.144 33.368 50.264 33.608 51.08C32.792 51.08 32.088 50.904 31.496 50.552C30.904 50.2 30.408 49.792 30.008 49.328C29.608 48.88 29.296 48.44 29.072 48.008C28.864 47.576 28.712 47.264 28.616 47.072C28.136 46.016 27.856 44.768 27.776 43.328C27.696 41.872 27.728 40.352 27.872 38.768C28.016 37.168 28.232 35.56 28.52 33.944C28.808 32.312 29.08 30.776 29.336 29.336C29.592 27.896 29.784 26.616 29.912 25.496C30.056 24.376 30.056 23.52 29.912 22.928C29.848 22.64 29.752 22.416 29.624 22.256C29.512 22.08 29.352 21.952 29.144 21.872C28.936 21.776 28.672 21.72 28.352 21.704C28.032 21.688 27.64 21.688 27.176 21.704C25.88 21.784 24.52 22.032 23.096 22.448C21.672 22.848 20.28 23.376 18.92 24.032C17.56 24.672 16.28 25.408 15.08 26.24C13.88 27.056 12.864 27.912 12.032 28.808C11.184 29.704 10.56 30.616 10.16 31.544C9.76 32.456 9.688 33.328 9.944 34.16C10.168 34.96 10.576 35.632 11.168 36.176C11.76 36.704 12.456 37.136 13.256 37.472C14.04 37.792 14.88 38.024 15.776 38.168C16.688 38.296 17.56 38.368 18.392 38.384C19.24 38.4 20.008 38.36 20.696 38.264C21.384 38.168 21.912 38.048 22.28 37.904C22.2 38.4 22.032 38.784 21.776 39.056C21.52 39.328 21.224 39.528 20.888 39.656C20.568 39.768 20.24 39.832 19.904 39.848C19.568 39.864 19.296 39.864 19.088 39.848C18.096 39.8 17.024 39.64 15.872 39.368C14.736 39.096 13.648 38.712 12.608 38.216C11.568 37.72 10.648 37.112 9.848 36.392C9.032 35.656 8.464 34.8 8.144 33.824C7.824 32.848 7.752 31.896 7.928 30.968C8.104 30.04 8.464 29.152 9.008 28.304C9.552 27.44 10.248 26.624 11.096 25.856C11.944 25.088 12.888 24.384 13.928 23.744C14.968 23.088 16.064 22.496 17.216 21.968C18.384 21.44 19.544 20.992 20.696 20.624C21.864 20.256 22.992 19.976 24.08 19.784C25.184 19.576 26.192 19.472 27.104 19.472C27.712 19.472 28.304 19.608 28.88 19.88C29.456 20.136 29.984 20.472 30.464 20.888C30.96 21.288 31.384 21.736 31.736 22.232C32.104 22.728 32.376 23.216 32.552 23.696C32.872 24.576 33.048 25.632 33.08 26.864C33.112 28.096 33.056 29.408 32.912 30.8C32.784 32.176 32.616 33.592 32.408 35.048C32.2 36.488 32.016 37.88 31.856 39.224C31.712 40.568 31.632 41.816 31.616 42.968C31.616 44.104 31.76 45.056 32.048 45.824C32 45.248 32.152 44.384 32.504 43.232C32.856 42.08 33.344 40.768 33.968 39.296C34.608 37.808 35.352 36.208 36.2 34.496C37.064 32.768 37.976 31.04 38.936 29.312C39.912 27.584 40.912 25.904 41.936 24.272C42.976 22.64 43.984 21.176 44.96 19.88C45.952 18.568 46.88 17.48 47.744 16.616C48.624 15.752 49.392 15.208 50.048 14.984C50.304 14.888 50.6 14.848 50.936 14.864C51.272 14.88 51.616 14.952 51.968 15.08C52.32 15.192 52.672 15.36 53.024 15.584C53.376 15.808 53.696 16.088 53.984 16.424Z" fill="#5A67D8"/>
</svg>
